STARTFONT 2.1
FONT -sni-gs24_ext-medium-r-normal--25-240-75-75-c-120--
SIZE 24 75 75
FONTBOUNDINGBOX 12 24 0 -6

STARTPROPERTIES 10
X_HEIGHT 9
COPYRIGHT "Copyright (C) Siemens Nixdorf Informationssysteme AG 1992, All Rights Reserved"
POINT_SIZE 240
WEIGHT 10
RESOLUTION_X 75
RESOLUTION_Y 75
QUAD_WIDTH 12
DEFAULT_CHAR 0
FONT_DESCENT 6
FONT_ASCENT 18
ENDPROPERTIES

CHARS 256

STARTCHAR C100
ENCODING 0
SWIDTH 631 0
DWIDTH 12 0
BBX 12 24 0 -6
BITMAP
0000
0000
0380
07C0
0C60
0C60
0C60
0C60
07C0
0380
0000
0000
0000
0000
0000
0000
0000
0000
0000
0000
0000
0000
0000
0000
ENDCHAR

STARTCHAR c101
ENCODING 1
SWIDTH 631 0
DWIDTH 12 0
BBX 12 24 0 -6
BITMAP
0000
0000
0180
0380
0780
0580
0180
0180
07E0
07E0
0000
0000
0000
0000
0000
0000
0000
0000
0000
0000
0000
0000
0000
0000
ENDCHAR

STARTCHAR c102
ENCODING 2
SWIDTH 631 0
DWIDTH 12 0
BBX 12 24 0 -6
BITMAP
0000
0000
07C0
0FE0
0860
01C0
0380
0600
0FE0
0FE0
0000
0000
0000
0000
0000
0000
0000
0000
0000
0000
0000
0000
0000
0000
ENDCHAR

STARTCHAR c103
ENCODING 3
SWIDTH 631 0
DWIDTH 12 0
BBX 12 24 0 -6
BITMAP
0000
0000
07C0
0FE0
0060
01C0
01C0
0060
0FE0
07C0
0000
0000
0000
0000
0000
0000
0000
0000
0000
0000
0000
0000
0000
0000
ENDCHAR

STARTCHAR c104
ENCODING 4
SWIDTH 631 0
DWIDTH 12 0
BBX 12 24 0 -6
BITMAP
0000
0000
0180
0300
0600
0CC0
0FE0
0FE0
00C0
00C0
0000
0000
0000
0000
0000
0000
0000
0000
0000
0000
0000
0000
0000
0000
ENDCHAR

STARTCHAR c105
ENCODING 5
SWIDTH 631 0
DWIDTH 12 0
BBX 12 24 0 -6
BITMAP
0000
0000
0FC0
0FC0
0C00
0FC0
07E0
0060
0FE0
07C0
0000
0000
0000
0000
0000
0000
0000
0000
0000
0000
0000
0000
0000
0000
ENDCHAR

STARTCHAR c106
ENCODING 6
SWIDTH 631 0
DWIDTH 12 0
BBX 12 24 0 -6
BITMAP
0000
0000
07C0
0FC0
0C00
0FC0
0FE0
0C60
0FE0
07C0
0000
0000
0000
0000
0000
0000
0000
0000
0000
0000
0000
0000
0000
0000
ENDCHAR

STARTCHAR c107
ENCODING 7
SWIDTH 631 0
DWIDTH 12 0
BBX 12 24 0 -6
BITMAP
0000
0000
0FE0
0FE0
0060
00C0
0180
0300
0300
0300
0000
0000
0000
0000
0000
0000
0000
0000
0000
0000
0000
0000
0000
0000
ENDCHAR

STARTCHAR c108
ENCODING 8
SWIDTH 631 0
DWIDTH 12 0
BBX 12 24 0 -6
BITMAP
0000
0000
07C0
0FE0
0C60
07C0
0FE0
0C60
0FE0
07C0
0000
0000
0000
0000
0000
0000
0000
0000
0000
0000
0000
0000
0000
0000
ENDCHAR

STARTCHAR c109
ENCODING 9
SWIDTH 631 0
DWIDTH 12 0
BBX 12 24 0 -6
BITMAP
0000
0000
07C0
0FE0
0C60
0FE0
07E0
0060
07E0
07C0
0000
0000
0000
0000
0000
0000
0000
0000
0000
0000
0000
0000
0000
0000
ENDCHAR

STARTCHAR c10a
ENCODING 10
SWIDTH 631 0
DWIDTH 12 0
BBX 12 24 0 -6
BITMAP
0000
0000
0000
0000
0000
0FE0
0FE0
0000
0000
0000
0000
0000
0000
0000
0000
0000
0000
0000
0000
0000
0000
0000
0000
0000
ENDCHAR

STARTCHAR c10b
ENCODING 11
SWIDTH 631 0
DWIDTH 12 0
BBX 12 24 0 -6
BITMAP
0000
0000
0000
0300
0300
0FC0
0FC0
0300
0300
0000
0000
0000
0000
0000
0000
0000
0000
0000
0000
0000
0000
0000
0000
0000
ENDCHAR

STARTCHAR c10c
ENCODING 12
SWIDTH 631 0
DWIDTH 12 0
BBX 12 24 0 -6
BITMAP
0000
0000
0000
0000
0000
0000
0C20
3E60
33E0
6180
0000
0C20
3E60
33E0
6180
0000
0000
0000
0000
0000
0000
0000
0000
0000
ENDCHAR

STARTCHAR c10d
ENCODING 13
SWIDTH 631 0
DWIDTH 12 0
BBX 12 24 0 -6
BITMAP
0000
0000
7FE0
7FE0
6060
3000
3000
1800
1800
0C00
1800
1800
3000
3000
6060
7FE0
7FE0
0000
0000
0000
0000
0000
0000
0000
ENDCHAR

STARTCHAR c10e
ENCODING 14
SWIDTH 631 0
DWIDTH 12 0
BBX 12 24 0 -6
BITMAP
0000
0000
03C0
03C0
0660
0660
0600
0600
0600
0600
0600
0600
0600
0600
0600
0600
0600
0600
0600
0600
0600
0600
0600
0600
ENDCHAR

STARTCHAR c10f
ENCODING 15
SWIDTH 631 0
DWIDTH 12 0
BBX 12 24 0 -6
BITMAP
0600
0600
0600
0600
0600
0600
0600
0600
0600
0600
0600
0600
0600
6600
6600
3C00
3C00
0000
0000
0000
0000
0000
0000
0000
ENDCHAR

STARTCHAR c110
ENCODING 16
SWIDTH 631 0
DWIDTH 12 0
BBX 12 24 0 -6
BITMAP
0000
0000
0000
0000
0000
0000
0000
0000
0000
0000
0000
0000
0000
0380
07C0
0C60
0C60
0C60
0C60
07C0
0380
0000
0000
0000
ENDCHAR

STARTCHAR c111
ENCODING 17
SWIDTH 631 0
DWIDTH 12 0
BBX 12 24 0 -6
BITMAP
0000
0000
0000
0000
0000
0000
0000
0000
0000
0000
0000
0000
0000
0180
0380
0780
0580
0180
0180
07E0
07E0
0000
0000
0000
ENDCHAR

STARTCHAR c112
ENCODING 18
SWIDTH 631 0
DWIDTH 12 0
BBX 12 24 0 -6
BITMAP
0000
0000
0000
0000
0000
0000
0000
0000
0000
0000
0000
0000
0000
07C0
0FE0
0860
01C0
0380
0600
0FE0
0FE0
0000
0000
0000
ENDCHAR

STARTCHAR c113
ENCODING 19
SWIDTH 631 0
DWIDTH 12 0
BBX 12 24 0 -6
BITMAP
0000
0000
0000
0000
0000
0000
0000
0000
0000
0000
0000
0000
0000
07C0
0FE0
0060
01C0
01C0
0060
0FE0
07C0
0000
0000
0000
ENDCHAR

STARTCHAR c114
ENCODING 20
SWIDTH 631 0
DWIDTH 12 0
BBX 12 24 0 -6
BITMAP
0000
0000
0000
0000
0000
0000
0000
0000
0000
0000
0000
0000
0000
0180
0300
0600
0CC0
0FE0
0FE0
00C0
00C0
0000
0000
0000
ENDCHAR

STARTCHAR c115
ENCODING 21
SWIDTH 631 0
DWIDTH 12 0
BBX 12 24 0 -6
BITMAP
0000
0000
0000
0000
0000
0000
0000
0000
0000
0000
0000
0000
0000
0FC0
0FC0
0C00
0FC0
07E0
0060
0FE0
07C0
0000
0000
0000
ENDCHAR

STARTCHAR c116
ENCODING 22
SWIDTH 631 0
DWIDTH 12 0
BBX 12 24 0 -6
BITMAP
0000
0000
0000
0000
0000
0000
0000
0000
0000
0000
0000
0000
0000
07C0
0FC0
0C00
0FC0
0FE0
0C60
0FE0
07C0
0000
0000
0000
ENDCHAR

STARTCHAR c117
ENCODING 23
SWIDTH 631 0
DWIDTH 12 0
BBX 12 24 0 -6
BITMAP
0000
0000
0000
0000
0000
0000
0000
0000
0000
0000
0000
0000
0000
0FE0
0FE0
0060
00C0
0180
0300
0300
0300
0000
0000
0000
ENDCHAR

STARTCHAR c118
ENCODING 24
SWIDTH 631 0
DWIDTH 12 0
BBX 12 24 0 -6
BITMAP
0000
0000
0000
0000
0000
0000
0000
0000
0000
0000
0000
0000
0000
07C0
0FE0
0C60
07C0
0FE0
0C60
0FE0
07C0
0000
0000
0000
ENDCHAR

STARTCHAR c119
ENCODING 25
SWIDTH 631 0
DWIDTH 12 0
BBX 12 24 0 -6
BITMAP
0000
0000
0000
0000
0000
0000
0000
0000
0000
0000
0000
0000
0000
07C0
0FE0
0C60
0FE0
07E0
0060
07E0
07C0
0000
0000
0000
ENDCHAR

STARTCHAR c11a
ENCODING 26
SWIDTH 631 0
DWIDTH 12 0
BBX 12 24 0 -6
BITMAP
0000
0000
0000
0000
0000
0000
0000
0000
0000
0000
0000
0000
0000
0000
0000
0000
0FE0
0FE0
0000
0000
0000
0000
0000
0000
ENDCHAR

STARTCHAR c11b
ENCODING 27
SWIDTH 631 0
DWIDTH 12 0
BBX 12 24 0 -6
BITMAP
0000
0000
0000
0000
0000
0000
0000
0000
0000
0000
0000
0000
0000
0000
0300
0300
0FC0
0FC0
0300
0300
0000
0000
0000
0000
ENDCHAR

STARTCHAR c11c
ENCODING 28
SWIDTH 631 0
DWIDTH 12 0
BBX 12 24 0 -6
BITMAP
0000
0000
0000
0000
0000
39C0
7FE0
6660
6660
6660
6660
7FE0
39C0
0000
0000
0000
0000
0000
0000
0000
0000
0000
0000
0000
ENDCHAR

STARTCHAR c11d
ENCODING 29
SWIDTH 631 0
DWIDTH 12 0
BBX 12 24 0 -6
BITMAP
0000
0000
0000
0000
0000
1820
3C60
7660
66C0
63C0
6380
6380
63C0
66C0
7660
3C60
1820
0000
0000
0000
0000
0000
0000
0000
ENDCHAR

STARTCHAR c11e
ENCODING 30
SWIDTH 631 0
DWIDTH 12 0
BBX 12 24 0 -6
BITMAP
0000
0000
7FE0
7FE0
0600
0F00
1F80
39C0
30C0
30C0
30C0
39C0
1F80
0F00
0600
7FE0
7FE0
0000
0000
0000
0000
0000
0000
0000
ENDCHAR

STARTCHAR c11f
ENCODING 31
SWIDTH 631 0
DWIDTH 12 0
BBX 12 24 0 -6
BITMAP
0000
0000
3FC0
7FE0
6060
6060
6060
6060
6060
6060
6060
6060
6060
6060
6060
6060
6060
0000
0000
0000
0000
0000
0000
0000
ENDCHAR

STARTCHAR c120
ENCODING 32
SWIDTH 631 0
DWIDTH 12 0
BBX 12 24 0 -6
BITMAP
0000
0000
0000
0000
0000
0000
0000
0000
0000
0000
0000
0000
0000
0000
0000
0000
0000
0000
0000
0000
0000
0000
0000
0000
ENDCHAR

STARTCHAR c121
ENCODING 33
SWIDTH 631 0
DWIDTH 12 0
BBX 12 24 0 -6
BITMAP
0000
0000
0000
0000
0000
0000
0000
0000
0000
0000
0000
0000
0000
0000
0000
0000
0000
0000
0000
0000
0000
FFF0
FFF0
FFF0
ENDCHAR

STARTCHAR c122
ENCODING 34
SWIDTH 631 0
DWIDTH 12 0
BBX 12 24 0 -6
BITMAP
0000
0000
0000
0000
0000
0000
0000
0000
0000
0000
0000
0000
0000
0000
0000
0000
0000
0000
FFF0
FFF0
FFF0
FFF0
FFF0
FFF0
ENDCHAR

STARTCHAR c123
ENCODING 35
SWIDTH 631 0
DWIDTH 12 0
BBX 12 24 0 -6
BITMAP
0000
0000
0000
0000
0000
0000
0000
0000
0000
0000
0000
0000
0000
0000
0000
FFF0
FFF0
FFF0
FFF0
FFF0
FFF0
FFF0
FFF0
FFF0
ENDCHAR

STARTCHAR c124
ENCODING 36
SWIDTH 631 0
DWIDTH 12 0
BBX 12 24 0 -6
BITMAP
0000
0000
0000
0000
0000
0000
0000
0000
0000
0000
0000
0000
FFF0
FFF0
FFF0
FFF0
FFF0
FFF0
FFF0
FFF0
FFF0
FFF0
FFF0
FFF0
ENDCHAR

STARTCHAR c125
ENCODING 37
SWIDTH 631 0
DWIDTH 12 0
BBX 12 24 0 -6
BITMAP
0000
0000
0000
0000
0000
0000
0000
0000
0000
FFF0
FFF0
FFF0
FFF0
FFF0
FFF0
FFF0
FFF0
FFF0
FFF0
FFF0
FFF0
FFF0
FFF0
FFF0
ENDCHAR

STARTCHAR c126
ENCODING 38
SWIDTH 631 0
DWIDTH 12 0
BBX 12 24 0 -6
BITMAP
0000
0000
0000
0000
0000
0000
FFF0
FFF0
FFF0
FFF0
FFF0
FFF0
FFF0
FFF0
FFF0
FFF0
FFF0
FFF0
FFF0
FFF0
FFF0
FFF0
FFF0
FFF0
ENDCHAR

STARTCHAR c127
ENCODING 39
SWIDTH 631 0
DWIDTH 12 0
BBX 12 24 0 -6
BITMAP
0000
0000
0000
FFF0
FFF0
FFF0
FFF0
FFF0
FFF0
FFF0
FFF0
FFF0
FFF0
FFF0
FFF0
FFF0
FFF0
FFF0
FFF0
FFF0
FFF0
FFF0
FFF0
FFF0
ENDCHAR

STARTCHAR c128
ENCODING 40
SWIDTH 631 0
DWIDTH 12 0
BBX 12 24 0 -6
BITMAP
0000
0000
0000
0000
0000
0000
0000
0000
0000
0000
0000
0000
0000
0000
0000
FFF0
FFF0
FFF0
0000
0000
0000
FFF0
FFF0
FFF0
ENDCHAR

STARTCHAR c129
ENCODING 41
SWIDTH 631 0
DWIDTH 12 0
BBX 12 24 0 -6
BITMAP
0000
0000
0000
0000
0000
0000
0000
0000
0000
0000
0000
0000
FFF0
FFF0
FFF0
FFF0
FFF0
FFF0
0000
0000
0000
FFF0
FFF0
FFF0
ENDCHAR

STARTCHAR c12a
ENCODING 42
SWIDTH 631 0
DWIDTH 12 0
BBX 12 24 0 -6
BITMAP
0000
0000
0000
0000
0000
0000
0000
0000
0000
FFF0
FFF0
FFF0
FFF0
FFF0
FFF0
FFF0
FFF0
FFF0
0000
0000
0000
FFF0
FFF0
FFF0
ENDCHAR

STARTCHAR c12b
ENCODING 43
SWIDTH 631 0
DWIDTH 12 0
BBX 12 24 0 -6
BITMAP
0000
0000
0000
0000
0000
0000
FFF0
FFF0
FFF0
FFF0
FFF0
FFF0
FFF0
FFF0
FFF0
FFF0
FFF0
FFF0
0000
0000
0000
FFF0
FFF0
FFF0
ENDCHAR

STARTCHAR c12c
ENCODING 44
SWIDTH 631 0
DWIDTH 12 0
BBX 12 24 0 -6
BITMAP
0000
0000
0000
FFF0
FFF0
FFF0
FFF0
FFF0
FFF0
FFF0
FFF0
FFF0
FFF0
FFF0
FFF0
FFF0
FFF0
FFF0
0000
0000
0000
FFF0
FFF0
FFF0
ENDCHAR

STARTCHAR c12d
ENCODING 45
SWIDTH 631 0
DWIDTH 12 0
BBX 12 24 0 -6
BITMAP
FFF0
FFF0
FFF0
FFF0
FFF0
FFF0
FFF0
FFF0
FFF0
FFF0
FFF0
FFF0
FFF0
FFF0
FFF0
FFF0
FFF0
FFF0
0000
0000
0000
FFF0
FFF0
FFF0
ENDCHAR

STARTCHAR c12e
ENCODING 46
SWIDTH 631 0
DWIDTH 12 0
BBX 12 24 0 -6
BITMAP
0000
0000
0000
0000
0000
0000
0000
0000
0000
0000
0000
0000
FFF0
FFF0
FFF0
0000
0000
0000
0000
0000
0000
FFF0
FFF0
FFF0
ENDCHAR

STARTCHAR c12f
ENCODING 47
SWIDTH 631 0
DWIDTH 12 0
BBX 12 24 0 -6
BITMAP
0000
0000
0000
0000
0000
0000
0000
0000
0000
FFF0
FFF0
FFF0
0000
0000
0000
0000
0000
0000
0000
0000
0000
FFF0
FFF0
FFF0
ENDCHAR

STARTCHAR c130
ENCODING 48
SWIDTH 631 0
DWIDTH 12 0
BBX 12 24 0 -6
BITMAP
0000
0000
0000
0000
0000
0000
FFF0
FFF0
FFF0
0000
0000
0000
0000
0000
0000
0000
0000
0000
0000
0000
0000
FFF0
FFF0
FFF0
ENDCHAR

STARTCHAR c131
ENCODING 49
SWIDTH 631 0
DWIDTH 12 0
BBX 12 24 0 -6
BITMAP
0000
0000
0000
FFF0
FFF0
FFF0
0000
0000
0000
0000
0000
0000
0000
0000
0000
0000
0000
0000
0000
0000
0000
FFF0
FFF0
FFF0
ENDCHAR

STARTCHAR c132
ENCODING 50
SWIDTH 631 0
DWIDTH 12 0
BBX 12 24 0 -6
BITMAP
FFF0
FFF0
FFF0
0000
0000
0000
0000
0000
0000
0000
0000
0000
0000
0000
0000
0000
0000
0000
0000
0000
0000
FFF0
FFF0
FFF0
ENDCHAR

STARTCHAR c133
ENCODING 51
SWIDTH 631 0
DWIDTH 12 0
BBX 12 24 0 -6
BITMAP
0000
0000
0000
0000
0000
0000
0000
0000
0000
0000
0000
0000
FFF0
FFF0
FFF0
0000
0000
0000
FFF0
FFF0
FFF0
FFF0
FFF0
FFF0
ENDCHAR

STARTCHAR c134
ENCODING 52
SWIDTH 631 0
DWIDTH 12 0
BBX 12 24 0 -6
BITMAP
0000
0000
0000
0000
0000
0000
0000
0000
0000
FFF0
FFF0
FFF0
FFF0
FFF0
FFF0
0000
0000
0000
FFF0
FFF0
FFF0
FFF0
FFF0
FFF0
ENDCHAR

STARTCHAR c135
ENCODING 53
SWIDTH 631 0
DWIDTH 12 0
BBX 12 24 0 -6
BITMAP
0000
0000
0000
0000
0000
0000
FFF0
FFF0
FFF0
FFF0
FFF0
FFF0
FFF0
FFF0
FFF0
0000
0000
0000
FFF0
FFF0
FFF0
FFF0
FFF0
FFF0
ENDCHAR

STARTCHAR c136
ENCODING 54
SWIDTH 631 0
DWIDTH 12 0
BBX 12 24 0 -6
BITMAP
0000
0000
0000
FFF0
FFF0
FFF0
FFF0
FFF0
FFF0
FFF0
FFF0
FFF0
FFF0
FFF0
FFF0
0000
0000
0000
FFF0
FFF0
FFF0
FFF0
FFF0
FFF0
ENDCHAR

STARTCHAR c137
ENCODING 55
SWIDTH 631 0
DWIDTH 12 0
BBX 12 24 0 -6
BITMAP
FFF0
FFF0
FFF0
FFF0
FFF0
FFF0
FFF0
FFF0
FFF0
FFF0
FFF0
FFF0
FFF0
FFF0
FFF0
0000
0000
0000
FFF0
FFF0
FFF0
FFF0
FFF0
FFF0
ENDCHAR

STARTCHAR c138
ENCODING 56
SWIDTH 631 0
DWIDTH 12 0
BBX 12 24 0 -6
BITMAP
0000
0000
0000
0000
0000
0000
0000
0000
0000
FFF0
FFF0
FFF0
0000
0000
0000
0000
0000
0000
FFF0
FFF0
FFF0
FFF0
FFF0
FFF0
ENDCHAR

STARTCHAR c139
ENCODING 57
SWIDTH 631 0
DWIDTH 12 0
BBX 12 24 0 -6
BITMAP
0000
0000
0000
0000
0000
0000
FFF0
FFF0
FFF0
0000
0000
0000
0000
0000
0000
0000
0000
0000
FFF0
FFF0
FFF0
FFF0
FFF0
FFF0
ENDCHAR

STARTCHAR c13a
ENCODING 58
SWIDTH 631 0
DWIDTH 12 0
BBX 12 24 0 -6
BITMAP
0000
0000
0000
FFF0
FFF0
FFF0
0000
0000
0000
0000
0000
0000
0000
0000
0000
0000
0000
0000
FFF0
FFF0
FFF0
FFF0
FFF0
FFF0
ENDCHAR

STARTCHAR c13b
ENCODING 59
SWIDTH 631 0
DWIDTH 12 0
BBX 12 24 0 -6
BITMAP
FFF0
FFF0
FFF0
0000
0000
0000
0000
0000
0000
0000
0000
0000
0000
0000
0000
0000
0000
0000
FFF0
FFF0
FFF0
FFF0
FFF0
FFF0
ENDCHAR

STARTCHAR c13c
ENCODING 60
SWIDTH 631 0
DWIDTH 12 0
BBX 12 24 0 -6
BITMAP
0000
0000
0000
0000
0000
0000
0000
0000
0000
FFF0
FFF0
FFF0
0000
0000
0000
FFF0
FFF0
FFF0
FFF0
FFF0
FFF0
FFF0
FFF0
FFF0
ENDCHAR

STARTCHAR c13d
ENCODING 61
SWIDTH 631 0
DWIDTH 12 0
BBX 12 24 0 -6
BITMAP
0000
0000
0000
0000
0000
0000
FFF0
FFF0
FFF0
FFF0
FFF0
FFF0
0000
0000
0000
FFF0
FFF0
FFF0
FFF0
FFF0
FFF0
FFF0
FFF0
FFF0
ENDCHAR

STARTCHAR c13e
ENCODING 62
SWIDTH 631 0
DWIDTH 12 0
BBX 12 24 0 -6
BITMAP
0000
0000
0000
FFF0
FFF0
FFF0
FFF0
FFF0
FFF0
FFF0
FFF0
FFF0
0000
0000
0000
FFF0
FFF0
FFF0
FFF0
FFF0
FFF0
FFF0
FFF0
FFF0
ENDCHAR

STARTCHAR c13f
ENCODING 63
SWIDTH 631 0
DWIDTH 12 0
BBX 12 24 0 -6
BITMAP
FFF0
FFF0
FFF0
FFF0
FFF0
FFF0
FFF0
FFF0
FFF0
FFF0
FFF0
FFF0
0000
0000
0000
FFF0
FFF0
FFF0
FFF0
FFF0
FFF0
FFF0
FFF0
FFF0
ENDCHAR

STARTCHAR c140
ENCODING 64
SWIDTH 631 0
DWIDTH 12 0
BBX 12 24 0 -6
BITMAP
0C00
0C00
0C00
0C00
0C00
0C00
0C00
0C00
0C00
0C00
0C00
0C00
0C00
0C00
0C00
0C00
0C00
0C00
0C00
0C00
0C00
0C00
0C00
0C00
ENDCHAR

STARTCHAR c141
ENCODING 65
SWIDTH 631 0
DWIDTH 12 0
BBX 12 24 0 -6
BITMAP
0000
0000
0000
0000
0000
0000
0000
0000
0000
0000
0000
FFF0
FFF0
0000
0000
0000
0000
0000
0000
0000
0000
0000
0000
0000
ENDCHAR

STARTCHAR c142
ENCODING 66
SWIDTH 631 0
DWIDTH 12 0
BBX 12 24 0 -6
BITMAP
0000
0000
0000
0000
0000
0000
0000
0000
0000
0000
0000
0FF0
0FF0
0C00
0C00
0C00
0C00
0C00
0C00
0C00
0C00
0C00
0C00
0C00
ENDCHAR

STARTCHAR c143
ENCODING 67
SWIDTH 631 0
DWIDTH 12 0
BBX 12 24 0 -6
BITMAP
0000
0000
0000
0000
0000
0000
0000
0000
0000
0000
0000
FC00
FC00
0C00
0C00
0C00
0C00
0C00
0C00
0C00
0C00
0C00
0C00
0C00
ENDCHAR

STARTCHAR c144
ENCODING 68
SWIDTH 631 0
DWIDTH 12 0
BBX 12 24 0 -6
BITMAP
0C00
0C00
0C00
0C00
0C00
0C00
0C00
0C00
0C00
0C00
0C00
0FF0
0FF0
0000
0000
0000
0000
0000
0000
0000
0000
0000
0000
0000
ENDCHAR

STARTCHAR c145
ENCODING 69
SWIDTH 631 0
DWIDTH 12 0
BBX 12 24 0 -6
BITMAP
0C00
0C00
0C00
0C00
0C00
0C00
0C00
0C00
0C00
0C00
0C00
FC00
FC00
0000
0000
0000
0000
0000
0000
0000
0000
0000
0000
0000
ENDCHAR

STARTCHAR c146
ENCODING 70
SWIDTH 631 0
DWIDTH 12 0
BBX 12 24 0 -6
BITMAP
0C00
0C00
0C00
0C00
0C00
0C00
0C00
0C00
0C00
0C00
0C00
0FF0
0FF0
0C00
0C00
0C00
0C00
0C00
0C00
0C00
0C00
0C00
0C00
0C00
ENDCHAR

STARTCHAR c147
ENCODING 71
SWIDTH 631 0
DWIDTH 12 0
BBX 12 24 0 -6
BITMAP
0C00
0C00
0C00
0C00
0C00
0C00
0C00
0C00
0C00
0C00
0C00
FC00
FC00
0C00
0C00
0C00
0C00
0C00
0C00
0C00
0C00
0C00
0C00
0C00
ENDCHAR

STARTCHAR c148
ENCODING 72
SWIDTH 631 0
DWIDTH 12 0
BBX 12 24 0 -6
BITMAP
0000
0000
0000
0000
0000
0000
0000
0000
0000
0000
0000
FFF0
FFF0
0C00
0C00
0C00
0C00
0C00
0C00
0C00
0C00
0C00
0C00
0C00
ENDCHAR

STARTCHAR c149
ENCODING 73
SWIDTH 631 0
DWIDTH 12 0
BBX 12 24 0 -6
BITMAP
0C00
0C00
0C00
0C00
0C00
0C00
0C00
0C00
0C00
0C00
0C00
FFF0
FFF0
0000
0000
0000
0000
0000
0000
0000
0000
0000
0000
0000
ENDCHAR

STARTCHAR c14a
ENCODING 74
SWIDTH 631 0
DWIDTH 12 0
BBX 12 24 0 -6
BITMAP
0C00
0C00
0C00
0C00
0C00
0C00
0C00
0C00
0C00
0C00
0C00
FFF0
FFF0
0C00
0C00
0C00
0C00
0C00
0C00
0C00
0C00
0C00
0C00
0C00
ENDCHAR

STARTCHAR c14b
ENCODING 75
SWIDTH 631 0
DWIDTH 12 0
BBX 12 24 0 -6
BITMAP
C000
C000
C000
C000
C000
C000
C000
C000
C000
C000
C000
C000
C000
C000
C000
C000
C000
C000
C000
C000
C000
C000
C000
C000
ENDCHAR

STARTCHAR c14c
ENCODING 76
SWIDTH 631 0
DWIDTH 12 0
BBX 12 24 0 -6
BITMAP
0070
0070
0070
0070
0070
0070
0070
0070
0070
0070
0070
0070
0070
0070
0070
0070
0070
0070
0070
0070
0070
0070
0070
0070
ENDCHAR

STARTCHAR c14d
ENCODING 77
SWIDTH 631 0
DWIDTH 12 0
BBX 12 24 0 -6
BITMAP
C070
C070
C070
C070
C070
C070
C070
C070
C070
C070
C070
C070
C070
C070
C070
C070
C070
C070
C070
C070
C070
C070
C070
C070
ENDCHAR

STARTCHAR c14e
ENCODING 78
SWIDTH 631 0
DWIDTH 12 0
BBX 12 24 0 -6
BITMAP
1F80
1F80
1F80
7FE0
7FE0
30C0
30C0
1980
0F00
0600
7FE0
7FE0
6660
0600
0600
0600
3FC0
3FC0
30C0
30C0
70E0
70E0
0000
0000
ENDCHAR

STARTCHAR c14f
ENCODING 79
SWIDTH 631 0
DWIDTH 12 0
BBX 12 24 0 -6
BITMAP
0000
0000
0000
0000
0000
0000
FFF0
FFF0
FFF0
0000
0000
0000
0000
0000
0000
FFF0
FFF0
FFF0
FFF0
FFF0
FFF0
FFF0
FFF0
FFF0
ENDCHAR

STARTCHAR c150
ENCODING 80
SWIDTH 631 0
DWIDTH 12 0
BBX 12 24 0 -6
BITMAP
0000
0000
0000
FFF0
FFF0
FFF0
0000
0000
0000
0000
0000
0000
0000
0000
0000
FFF0
FFF0
FFF0
FFF0
FFF0
FFF0
FFF0
FFF0
FFF0
ENDCHAR

STARTCHAR c151
ENCODING 81
SWIDTH 631 0
DWIDTH 12 0
BBX 12 24 0 -6
BITMAP
FFF0
FFF0
FFF0
0000
0000
0000
0000
0000
0000
0000
0000
0000
0000
0000
0000
FFF0
FFF0
FFF0
FFF0
FFF0
FFF0
FFF0
FFF0
FFF0
ENDCHAR

STARTCHAR c152
ENCODING 82
SWIDTH 631 0
DWIDTH 12 0
BBX 12 24 0 -6
BITMAP
0000
0000
0000
0000
0000
0000
FFF0
FFF0
FFF0
0000
0000
0000
FFF0
FFF0
FFF0
FFF0
FFF0
FFF0
FFF0
FFF0
FFF0
FFF0
FFF0
FFF0
ENDCHAR

STARTCHAR c153
ENCODING 83
SWIDTH 631 0
DWIDTH 12 0
BBX 12 24 0 -6
BITMAP
0000
0000
0000
FFF0
FFF0
FFF0
FFF0
FFF0
FFF0
0000
0000
0000
FFF0
FFF0
FFF0
FFF0
FFF0
FFF0
FFF0
FFF0
FFF0
FFF0
FFF0
FFF0
ENDCHAR

STARTCHAR c154
ENCODING 84
SWIDTH 631 0
DWIDTH 12 0
BBX 12 24 0 -6
BITMAP
FFF0
FFF0
FFF0
FFF0
FFF0
FFF0
FFF0
FFF0
FFF0
0000
0000
0000
FFF0
FFF0
FFF0
FFF0
FFF0
FFF0
FFF0
FFF0
FFF0
FFF0
FFF0
FFF0
ENDCHAR

STARTCHAR c155
ENCODING 85
SWIDTH 631 0
DWIDTH 12 0
BBX 12 24 0 -6
BITMAP
0000
0000
0000
FFF0
FFF0
FFF0
0000
0000
0000
0000
0000
0000
FFF0
FFF0
FFF0
FFF0
FFF0
FFF0
FFF0
FFF0
FFF0
FFF0
FFF0
FFF0
ENDCHAR

STARTCHAR c156
ENCODING 86
SWIDTH 631 0
DWIDTH 12 0
BBX 12 24 0 -6
BITMAP
FFF0
FFF0
FFF0
0000
0000
0000
0000
0000
0000
0000
0000
0000
FFF0
FFF0
FFF0
FFF0
FFF0
FFF0
FFF0
FFF0
FFF0
FFF0
FFF0
FFF0
ENDCHAR

STARTCHAR c157
ENCODING 87
SWIDTH 631 0
DWIDTH 12 0
BBX 12 24 0 -6
BITMAP
0000
0000
0000
FFF0
FFF0
FFF0
0000
0000
0000
FFF0
FFF0
FFF0
FFF0
FFF0
FFF0
FFF0
FFF0
FFF0
FFF0
FFF0
FFF0
FFF0
FFF0
FFF0
ENDCHAR

STARTCHAR c158
ENCODING 88
SWIDTH 631 0
DWIDTH 12 0
BBX 12 24 0 -6
BITMAP
FFF0
FFF0
FFF0
FFF0
FFF0
FFF0
0000
0000
0000
FFF0
FFF0
FFF0
FFF0
FFF0
FFF0
FFF0
FFF0
FFF0
FFF0
FFF0
FFF0
FFF0
FFF0
FFF0
ENDCHAR

STARTCHAR c159
ENCODING 89
SWIDTH 631 0
DWIDTH 12 0
BBX 12 24 0 -6
BITMAP
FFF0
FFF0
FFF0
0000
0000
0000
0000
0000
0000
FFF0
FFF0
FFF0
FFF0
FFF0
FFF0
FFF0
FFF0
FFF0
FFF0
FFF0
FFF0
FFF0
FFF0
FFF0
ENDCHAR

STARTCHAR c15a
ENCODING 90
SWIDTH 631 0
DWIDTH 12 0
BBX 12 24 0 -6
BITMAP
FFF0
FFF0
FFF0
0000
0000
0000
FFF0
FFF0
FFF0
FFF0
FFF0
FFF0
FFF0
FFF0
FFF0
FFF0
FFF0
FFF0
FFF0
FFF0
FFF0
FFF0
FFF0
FFF0
ENDCHAR

STARTCHAR c15b
ENCODING 91
SWIDTH 631 0
DWIDTH 12 0
BBX 12 24 0 -6
BITMAP
0000
0000
0000
0000
0000
0000
0000
0000
0000
0000
0000
0000
0000
0000
0000
0000
0000
0000
FFF0
FFF0
FFF0
0000
0000
0000
ENDCHAR

STARTCHAR c15c
ENCODING 92
SWIDTH 631 0
DWIDTH 12 0
BBX 12 24 0 -6
BITMAP
0000
0000
0000
0000
0000
0000
0000
0000
0000
0000
0000
0000
0000
0000
0000
FFF0
FFF0
FFF0
FFF0
FFF0
FFF0
0000
0000
0000
ENDCHAR

STARTCHAR c15d
ENCODING 93
SWIDTH 631 0
DWIDTH 12 0
BBX 12 24 0 -6
BITMAP
FFF0
FFF0
0000
0000
FFF0
FFF0
0000
0000
FFF0
FFF0
0000
0000
FFF0
FFF0
0000
0000
FFF0
FFF0
0000
0000
FFF0
FFF0
0000
0000
ENDCHAR

STARTCHAR c15e
ENCODING 94
SWIDTH 631 0
DWIDTH 12 0
BBX 12 24 0 -6
BITMAP
0000
0000
FFF0
FFF0
0000
0000
FFF0
FFF0
0000
0000
FFF0
FFF0
0000
0000
FFF0
FFF0
0000
0000
FFF0
FFF0
0000
0000
FFF0
FFF0
ENDCHAR

STARTCHAR c15f
ENCODING 95
SWIDTH 631 0
DWIDTH 12 0
BBX 12 24 0 -6
BITMAP
FFF0
FFF0
FFF0
FFF0
FFF0
FFF0
FFF0
FFF0
FFF0
FFF0
FFF0
FFF0
FFF0
FFF0
FFF0
FFF0
FFF0
FFF0
FFF0
FFF0
FFF0
FFF0
FFF0
FFF0
ENDCHAR

STARTCHAR c160
ENCODING 96
SWIDTH 631 0
DWIDTH 12 0
BBX 12 24 0 -6
BITMAP
0E00
0E00
0E00
0E00
0E00
0E00
0E00
0E00
0E00
0E00
0E00
0E00
0E00
0E00
0E00
0E00
0E00
0E00
0E00
0E00
0E00
0E00
0E00
0E00
ENDCHAR

STARTCHAR c161
ENCODING 97
SWIDTH 631 0
DWIDTH 12 0
BBX 12 24 0 -6
BITMAP
0000
0000
0000
0000
0000
0000
0000
0000
0000
0000
0000
FFF0
FFF0
FFF0
0000
0000
0000
0000
0000
0000
0000
0000
0000
0000
ENDCHAR

STARTCHAR c162
ENCODING 98
SWIDTH 631 0
DWIDTH 12 0
BBX 12 24 0 -6
BITMAP
0000
0000
0000
0000
0000
0000
0000
0000
0000
0000
0000
0FF0
0FF0
0FF0
0E00
0E00
0E00
0E00
0E00
0E00
0E00
0E00
0E00
0E00
ENDCHAR

STARTCHAR c163
ENCODING 99
SWIDTH 631 0
DWIDTH 12 0
BBX 12 24 0 -6
BITMAP
0000
0000
0000
0000
0000
0000
0000
0000
0000
0000
0000
FE00
FE00
FE00
0E00
0E00
0E00
0E00
0E00
0E00
0E00
0E00
0E00
0E00
ENDCHAR

STARTCHAR c164
ENCODING 100
SWIDTH 631 0
DWIDTH 12 0
BBX 12 24 0 -6
BITMAP
0E00
0E00
0E00
0E00
0E00
0E00
0E00
0E00
0E00
0E00
0E00
0FF0
0FF0
0FF0
0000
0000
0000
0000
0000
0000
0000
0000
0000
0000
ENDCHAR

STARTCHAR c165
ENCODING 101
SWIDTH 631 0
DWIDTH 12 0
BBX 12 24 0 -6
BITMAP
0E00
0E00
0E00
0E00
0E00
0E00
0E00
0E00
0E00
0E00
0E00
FE00
FE00
FE00
0000
0000
0000
0000
0000
0000
0000
0000
0000
0000
ENDCHAR

STARTCHAR c166
ENCODING 102
SWIDTH 631 0
DWIDTH 12 0
BBX 12 24 0 -6
BITMAP
0E00
0E00
0E00
0E00
0E00
0E00
0E00
0E00
0E00
0E00
0E00
0FF0
0FF0
0FF0
0E00
0E00
0E00
0E00
0E00
0E00
0E00
0E00
0E00
0E00
ENDCHAR

STARTCHAR c167
ENCODING 103
SWIDTH 631 0
DWIDTH 12 0
BBX 12 24 0 -6
BITMAP
0E00
0E00
0E00
0E00
0E00
0E00
0E00
0E00
0E00
0E00
0E00
FE00
FE00
FE00
0E00
0E00
0E00
0E00
0E00
0E00
0E00
0E00
0E00
0E00
ENDCHAR

STARTCHAR c168
ENCODING 104
SWIDTH 631 0
DWIDTH 12 0
BBX 12 24 0 -6
BITMAP
0000
0000
0000
0000
0000
0000
0000
0000
0000
0000
0000
FFF0
FFF0
FFF0
0E00
0E00
0E00
0E00
0E00
0E00
0E00
0E00
0E00
0E00
ENDCHAR

STARTCHAR c169
ENCODING 105
SWIDTH 631 0
DWIDTH 12 0
BBX 12 24 0 -6
BITMAP
0E00
0E00
0E00
0E00
0E00
0E00
0E00
0E00
0E00
0E00
0E00
FFF0
FFF0
FFF0
0000
0000
0000
0000
0000
0000
0000
0000
0000
0000
ENDCHAR

STARTCHAR c16a
ENCODING 106
SWIDTH 631 0
DWIDTH 12 0
BBX 12 24 0 -6
BITMAP
0E00
0E00
0E00
0E00
0E00
0E00
0E00
0E00
0E00
0E00
0E00
FFF0
FFF0
FFF0
0E00
0E00
0E00
0E00
0E00
0E00
0E00
0E00
0E00
0E00
ENDCHAR

STARTCHAR c16b
ENCODING 107
SWIDTH 631 0
DWIDTH 12 0
BBX 12 24 0 -6
BITMAP
C000
C000
C000
C000
C000
C000
C000
C000
C000
C000
C000
FFF0
FFF0
0000
0000
0000
0000
0000
0000
0000
0000
0000
0000
0000
ENDCHAR

STARTCHAR c16c
ENCODING 108
SWIDTH 631 0
DWIDTH 12 0
BBX 12 24 0 -6
BITMAP
0070
0070
0070
0070
0070
0070
0070
0070
0070
0070
0070
FFF0
FFF0
0000
0000
0000
0000
0000
0000
0000
0000
0000
0000
0000
ENDCHAR

STARTCHAR c16d
ENCODING 109
SWIDTH 631 0
DWIDTH 12 0
BBX 12 24 0 -6
BITMAP
0000
0000
CCC0
CCC0
0000
0000
CCC0
CCC0
0000
0000
CCC0
CCC0
0000
0000
CCC0
CCC0
0000
0000
CCC0
CCC0
0000
0000
CCC0
CCC0
ENDCHAR

STARTCHAR c16e
ENCODING 110
SWIDTH 631 0
DWIDTH 12 0
BBX 12 24 0 -6
BITMAP
5570
AA80
5570
AA80
5570
AA80
5570
AA80
5570
AA80
5570
AA80
5570
AA80
5570
AA80
5570
AA80
5570
AA80
5570
AA80
5570
AA80
ENDCHAR

STARTCHAR c16f
ENCODING 111
SWIDTH 631 0
DWIDTH 12 0
BBX 12 24 0 -6
BITMAP
0000
0000
0000
0000
0000
0000
0000
0000
0000
0000
0000
0000
FFF0
FFF0
FFF0
FFF0
FFF0
FFF0
FFF0
FFF0
FFF0
0000
0000
0000
ENDCHAR

STARTCHAR c170
ENCODING 112
SWIDTH 631 0
DWIDTH 12 0
BBX 12 24 0 -6
BITMAP
0000
0000
0000
0000
0000
0000
0000
0000
0000
FFF0
FFF0
FFF0
FFF0
FFF0
FFF0
FFF0
FFF0
FFF0
FFF0
FFF0
FFF0
0000
0000
0000
ENDCHAR

STARTCHAR c171
ENCODING 113
SWIDTH 631 0
DWIDTH 12 0
BBX 12 24 0 -6
BITMAP
0000
0000
0000
0000
0000
0000
FFF0
FFF0
FFF0
FFF0
FFF0
FFF0
FFF0
FFF0
FFF0
FFF0
FFF0
FFF0
FFF0
FFF0
FFF0
0000
0000
0000
ENDCHAR

STARTCHAR c172
ENCODING 114
SWIDTH 631 0
DWIDTH 12 0
BBX 12 24 0 -6
BITMAP
0000
0000
0000
FFF0
FFF0
FFF0
FFF0
FFF0
FFF0
FFF0
FFF0
FFF0
FFF0
FFF0
FFF0
FFF0
FFF0
FFF0
FFF0
FFF0
FFF0
0000
0000
0000
ENDCHAR

STARTCHAR c173
ENCODING 115
SWIDTH 631 0
DWIDTH 12 0
BBX 12 24 0 -6
BITMAP
FFF0
FFF0
FFF0
FFF0
FFF0
FFF0
FFF0
FFF0
FFF0
FFF0
FFF0
FFF0
FFF0
FFF0
FFF0
FFF0
FFF0
FFF0
FFF0
FFF0
FFF0
0000
0000
0000
ENDCHAR

STARTCHAR c174
ENCODING 116
SWIDTH 631 0
DWIDTH 12 0
BBX 12 24 0 -6
BITMAP
0000
0000
0000
0000
0000
0000
0000
0000
0000
0000
0000
0000
0000
0000
0000
FFF0
FFF0
FFF0
0000
0000
0000
0000
0000
0000
ENDCHAR

STARTCHAR c175
ENCODING 117
SWIDTH 631 0
DWIDTH 12 0
BBX 12 24 0 -6
BITMAP
FFF0
FFF0
FFF0
FFF0
FFF0
FFF0
FFF0
FFF0
FFF0
FFF0
FFF0
FFF0
FFF0
FFF0
FFF0
FFF0
FFF0
FFF0
0000
0000
0000
0000
0000
0000
ENDCHAR

STARTCHAR c176
ENCODING 118
SWIDTH 631 0
DWIDTH 12 0
BBX 12 24 0 -6
BITMAP
0000
0000
0000
0000
0000
0000
0000
0000
0000
0000
0000
0000
FFF0
FFF0
FFF0
0000
0000
0000
0000
0000
0000
0000
0000
0000
ENDCHAR

STARTCHAR c177
ENCODING 119
SWIDTH 631 0
DWIDTH 12 0
BBX 12 24 0 -6
BITMAP
FFF0
FFF0
FFF0
FFF0
FFF0
FFF0
FFF0
FFF0
FFF0
FFF0
FFF0
FFF0
FFF0
FFF0
FFF0
0000
0000
0000
0000
0000
0000
0000
0000
0000
ENDCHAR

STARTCHAR c178
ENCODING 120
SWIDTH 631 0
DWIDTH 12 0
BBX 12 24 0 -6
BITMAP
0000
0000
0000
0000
0000
0000
0000
0000
0000
FFF0
FFF0
FFF0
0000
0000
0000
0000
0000
0000
0000
0000
0000
0000
0000
0000
ENDCHAR

STARTCHAR c179
ENCODING 121
SWIDTH 631 0
DWIDTH 12 0
BBX 12 24 0 -6
BITMAP
FFF0
FFF0
FFF0
FFF0
FFF0
FFF0
FFF0
FFF0
FFF0
FFF0
FFF0
FFF0
0000
0000
0000
0000
0000
0000
0000
0000
0000
0000
0000
0000
ENDCHAR

STARTCHAR c17a
ENCODING 122
SWIDTH 631 0
DWIDTH 12 0
BBX 12 24 0 -6
BITMAP
0000
0000
0000
0000
0000
0000
FFF0
FFF0
FFF0
0000
0000
0000
0000
0000
0000
0000
0000
0000
0000
0000
0000
0000
0000
0000
ENDCHAR

STARTCHAR c17b
ENCODING 123
SWIDTH 631 0
DWIDTH 12 0
BBX 12 24 0 -6
BITMAP
FFF0
FFF0
FFF0
FFF0
FFF0
FFF0
FFF0
FFF0
FFF0
0000
0000
0000
0000
0000
0000
0000
0000
0000
0000
0000
0000
0000
0000
0000
ENDCHAR

STARTCHAR c17c
ENCODING 124
SWIDTH 631 0
DWIDTH 12 0
BBX 12 24 0 -6
BITMAP
0000
0000
0000
FFF0
FFF0
FFF0
0000
0000
0000
0000
0000
0000
0000
0000
0000
0000
0000
0000
0000
0000
0000
0000
0000
0000
ENDCHAR

STARTCHAR c17d
ENCODING 125
SWIDTH 631 0
DWIDTH 12 0
BBX 12 24 0 -6
BITMAP
FFF0
FFF0
FFF0
FFF0
FFF0
FFF0
0000
0000
0000
0000
0000
0000
0000
0000
0000
0000
0000
0000
0000
0000
0000
0000
0000
0000
ENDCHAR

STARTCHAR c17e
ENCODING 126
SWIDTH 631 0
DWIDTH 12 0
BBX 12 24 0 -6
BITMAP
FFF0
FFF0
FFF0
0000
0000
0000
0000
0000
0000
0000
0000
0000
0000
0000
0000
0000
0000
0000
0000
0000
0000
0000
0000
0000
ENDCHAR

STARTCHAR c17f
ENCODING 127
SWIDTH 631 0
DWIDTH 12 0
BBX 12 24 0 -6
BITMAP
0380
0700
0E00
0000
0000
0600
0600
6600
6600
0600
0600
0600
0600
0600
0600
3FC0
3FC0
0000
0000
0000
0000
0000
0000
0000
ENDCHAR

STARTCHAR c180
ENCODING 128
SWIDTH 631 0
DWIDTH 12 0
BBX 12 24 0 -6
BITMAP
0E00
0E00
0E00
0E00
0E00
0E00
0E00
0E00
FFF0
FFF0
FFF0
FFF0
FFF0
FFF0
FFF0
FFF0
FFF0
FFF0
0000
0000
0000
0000
0000
0000
ENDCHAR

STARTCHAR c181
ENCODING 129
SWIDTH 631 0
DWIDTH 12 0
BBX 12 24 0 -6
BITMAP
0000
0000
0000
0000
0000
0000
0000
0000
FFF0
FFF0
FFF0
FFF0
FFF0
FFF0
FFF0
FFF0
FFF0
FFF0
0E00
0E00
0E00
0E00
0E00
0E00
ENDCHAR

STARTCHAR c182
ENCODING 130
SWIDTH 631 0
DWIDTH 12 0
BBX 12 24 0 -6
BITMAP
0E00
0E00
0E00
0E00
0E00
0E00
0E00
0E00
0FF0
0FF0
0FF0
0FF0
0FF0
0FF0
0FF0
0FF0
0FF0
0FF0
0E00
0E00
0E00
0E00
0E00
0E00
ENDCHAR

STARTCHAR c183
ENCODING 131
SWIDTH 631 0
DWIDTH 12 0
BBX 12 24 0 -6
BITMAP
0E00
0E00
0E00
0E00
0E00
0E00
0E00
0E00
FE00
FE00
FE00
FE00
FE00
FE00
FE00
FE00
FE00
FE00
0E00
0E00
0E00
0E00
0E00
0E00
ENDCHAR

STARTCHAR c184
ENCODING 132
SWIDTH 631 0
DWIDTH 12 0
BBX 12 24 0 -6
BITMAP
0E00
0E00
0E00
1C00
1C00
3800
3800
7000
7000
E000
E000
E000
E000
E000
E000
E000
E000
7000
7000
3800
3800
1C00
0E00
0E00
ENDCHAR

STARTCHAR c185
ENCODING 133
SWIDTH 631 0
DWIDTH 12 0
BBX 12 24 0 -6
BITMAP
0E00
0E00
0E00
0700
0380
0380
01C0
00E0
00E0
0070
0070
0070
0070
0070
0070
0070
0070
00E0
00E0
01C0
0380
0380
0700
0E00
ENDCHAR

STARTCHAR c186
ENCODING 134
SWIDTH 631 0
DWIDTH 12 0
BBX 12 24 0 -6
BITMAP
0000
0000
0000
0000
0000
0000
0000
0000
0000
0000
0000
0000
0000
E070
E070
E070
F0F0
39C0
39C0
1F80
1F00
0F00
0E00
0E00
ENDCHAR

STARTCHAR c187
ENCODING 135
SWIDTH 631 0
DWIDTH 12 0
BBX 12 24 0 -6
BITMAP
0E00
0E00
0E00
1F00
1F80
3B80
39C0
70E0
70E0
E070
E070
E070
E070
0000
0000
0000
0000
0000
0000
0000
0000
0000
0000
0000
ENDCHAR

STARTCHAR c188
ENCODING 136
SWIDTH 631 0
DWIDTH 12 0
BBX 12 24 0 -6
BITMAP
0E00
0E00
0E00
1C00
1C00
3800
3800
7000
7000
E000
E000
E000
E000
0000
0000
0000
0000
0000
0000
0000
0000
0000
0000
0000
ENDCHAR

STARTCHAR c189
ENCODING 137
SWIDTH 631 0
DWIDTH 12 0
BBX 12 24 0 -6
BITMAP
0E00
0E00
0E00
0700
0780
0380
01C0
00E0
00E0
0070
0070
0070
0070
0000
0000
0000
0000
0000
0000
0000
0000
0000
0000
0000
ENDCHAR

STARTCHAR c18a
ENCODING 138
SWIDTH 631 0
DWIDTH 12 0
BBX 12 24 0 -6
BITMAP
0000
0000
0000
0000
0000
0000
0000
0000
0000
0000
0000
0000
0000
E000
E000
E000
E000
7000
7000
3800
3800
1C00
1C00
0E00
ENDCHAR

STARTCHAR c18b
ENCODING 139
SWIDTH 631 0
DWIDTH 12 0
BBX 12 24 0 -6
BITMAP
0000
0000
0000
0000
0000
0000
0000
0000
0000
0000
0000
0000
0000
0070
0070
0070
0070
00E0
00E0
01C0
0380
0780
0700
0E00
ENDCHAR

STARTCHAR c18c
ENCODING 140
SWIDTH 631 0
DWIDTH 12 0
BBX 12 24 0 -6
BITMAP
0E00
0E00
0E00
0E00
0E00
0E00
0E00
0E00
FFF0
FFF0
FFF0
FFF0
FFF0
FFF0
FFF0
FFF0
FFF0
FFF0
0E00
0E00
0E00
0E00
0E00
0E00
ENDCHAR

STARTCHAR c18d
ENCODING 141
SWIDTH 631 0
DWIDTH 12 0
BBX 12 24 0 -6
BITMAP
0000
0000
FFC0
FFC0
C0C0
C0C0
FFC0
7F80
3F00
1E00
0C00
1E00
3300
6180
C0C0
C0C0
FFC0
FFC0
0000
0000
0000
0000
0000
0000
ENDCHAR

STARTCHAR c18e
ENCODING 142
SWIDTH 631 0
DWIDTH 12 0
BBX 12 24 0 -6
BITMAP
0000
0000
0000
0000
0000
0000
0000
0F00
1F80
3FC0
7FE0
7FE0
7FE0
7FE0
3FC0
1F80
0F00
0000
0000
0000
0000
0000
0000
0000
ENDCHAR

STARTCHAR c18f
ENCODING 143
SWIDTH 631 0
DWIDTH 12 0
BBX 12 24 0 -6
BITMAP
0000
0000
0000
0000
0000
0000
0000
0F00
1F80
39C0
70E0
6060
6060
70E0
39C0
1F80
0F00
0000
0000
0000
0000
0000
0000
0000
ENDCHAR

STARTCHAR c190
ENCODING 144
SWIDTH 631 0
DWIDTH 12 0
BBX 12 24 0 -6
BITMAP
0600
0600
0600
0600
0600
0600
0600
0600
0600
0600
0600
0600
0600
0600
0600
0600
0600
0600
0600
0600
0600
0600
0600
0600
ENDCHAR

STARTCHAR c191
ENCODING 145
SWIDTH 631 0
DWIDTH 12 0
BBX 12 24 0 -6
BITMAP
0000
0000
0000
0000
0000
0000
0000
0000
0000
0000
0000
0000
FFF0
FFF0
0000
0000
0000
0000
0000
0000
0000
0000
0000
0000
ENDCHAR

STARTCHAR c192
ENCODING 146
SWIDTH 631 0
DWIDTH 12 0
BBX 12 24 0 -6
BITMAP
0000
0000
0000
0000
0000
0000
0000
0000
0000
0000
0000
0000
07F0
07F0
0600
0600
0600
0600
0600
0600
0600
0600
0600
0600
ENDCHAR

STARTCHAR c193
ENCODING 147
SWIDTH 631 0
DWIDTH 12 0
BBX 12 24 0 -6
BITMAP
0000
0000
0000
0000
0000
0000
0000
0000
0000
0000
0000
0000
FE00
FE00
0600
0600
0600
0600
0600
0600
0600
0600
0600
0600
ENDCHAR

STARTCHAR c194
ENCODING 148
SWIDTH 631 0
DWIDTH 12 0
BBX 12 24 0 -6
BITMAP
0600
0600
0600
0600
0600
0600
0600
0600
0600
0600
0600
0600
07F0
07F0
0000
0000
0000
0000
0000
0000
0000
0000
0000
0000
ENDCHAR

STARTCHAR c195
ENCODING 149
SWIDTH 631 0
DWIDTH 12 0
BBX 12 24 0 -6
BITMAP
0600
0600
0600
0600
0600
0600
0600
0600
0600
0600
0600
0600
FE00
FE00
0000
0000
0000
0000
0000
0000
0000
0000
0000
0000
ENDCHAR

STARTCHAR c196
ENCODING 150
SWIDTH 631 0
DWIDTH 12 0
BBX 12 24 0 -6
BITMAP
0600
0600
0600
0600
0600
0600
0600
0600
0600
0600
0600
0600
07F0
07F0
0600
0600
0600
0600
0600
0600
0600
0600
0600
0600
ENDCHAR

STARTCHAR c197
ENCODING 151
SWIDTH 631 0
DWIDTH 12 0
BBX 12 24 0 -6
BITMAP
0600
0600
0600
0600
0600
0600
0600
0600
0600
0600
0600
0600
FE00
FE00
0600
0600
0600
0600
0600
0600
0600
0600
0600
0600
ENDCHAR

STARTCHAR c198
ENCODING 152
SWIDTH 631 0
DWIDTH 12 0
BBX 12 24 0 -6
BITMAP
0000
0000
0000
0000
0000
0000
0000
0000
0000
0000
0000
0000
FFF0
FFF0
0600
0600
0600
0600
0600
0600
0600
0600
0600
0600
ENDCHAR

STARTCHAR c199
ENCODING 153
SWIDTH 631 0
DWIDTH 12 0
BBX 12 24 0 -6
BITMAP
0600
0600
0600
0600
0600
0600
0600
0600
0600
0600
0600
0600
FFF0
FFF0
0000
0000
0000
0000
0000
0000
0000
0000
0000
0000
ENDCHAR

STARTCHAR c19a
ENCODING 154
SWIDTH 631 0
DWIDTH 12 0
BBX 12 24 0 -6
BITMAP
0600
0600
0600
0600
0600
0600
0600
0600
0600
0600
0600
0600
FFF0
FFF0
0600
0600
0600
0600
0600
0600
0600
0600
0600
0600
ENDCHAR

STARTCHAR c19b
ENCODING 155
SWIDTH 631 0
DWIDTH 12 0
BBX 12 24 0 -6
BITMAP
0000
0000
0000
0000
0000
0000
0000
0000
0000
0100
0180
01C0
FFF0
FFF0
01C0
0180
0100
0000
0000
0000
0000
0000
0000
0000
ENDCHAR

STARTCHAR c19c
ENCODING 156
SWIDTH 631 0
DWIDTH 12 0
BBX 12 24 0 -6
BITMAP
0000
0000
0000
0000
0000
0000
0000
0000
0000
1000
3000
7000
FFF0
FFF0
7000
3000
1000
0000
0000
0000
0000
0000
0000
0000
ENDCHAR

STARTCHAR c19d
ENCODING 157
SWIDTH 631 0
DWIDTH 12 0
BBX 12 24 0 -6
BITMAP
0600
0F00
1F80
3FC0
0600
0600
0600
0600
0600
0600
0600
0600
0600
0600
0600
0600
0600
0600
0600
0600
0600
0600
0600
0600
ENDCHAR

STARTCHAR c19e
ENCODING 158
SWIDTH 631 0
DWIDTH 12 0
BBX 12 24 0 -6
BITMAP
0600
0600
0600
0600
0600
0600
0600
0600
0600
0600
0600
0600
0600
0600
0600
0600
0600
0600
0600
0600
3FC0
1F80
0F00
0600
ENDCHAR

STARTCHAR c19f
ENCODING 159
SWIDTH 631 0
DWIDTH 12 0
BBX 12 24 0 -6
BITMAP
0600
0600
0600
0600
0600
0600
0600
0600
0600
0600
0600
0600
0600
0600
0600
0000
0000
0000
0000
0000
0000
0000
0000
0000
ENDCHAR

STARTCHAR c1a0
ENCODING 160
SWIDTH 631 0
DWIDTH 12 0
BBX 12 24 0 -6
BITMAP
0000
0000
0000
0000
0000
0000
0000
0000
0000
0000
0000
0000
0000
0600
0600
0600
0600
0600
0600
0600
0600
0600
0600
0600
ENDCHAR

STARTCHAR c1a1
ENCODING 161
SWIDTH 631 0
DWIDTH 12 0
BBX 12 24 0 -6
BITMAP
0000
0000
0000
0000
0000
0F00
3FC0
36C0
6660
6620
67A0
67E0
6020
6060
39C0
3FC0
0F00
0000
0000
0000
0000
0000
0000
0000
ENDCHAR

STARTCHAR c1a2
ENCODING 162
SWIDTH 631 0
DWIDTH 12 0
BBX 12 24 0 -6
BITMAP
0000
0000
0000
0000
0000
0000
0000
0000
0000
0000
0000
0000
00F0
03F0
0300
0600
0600
0600
0600
0600
0600
0600
0600
0600
ENDCHAR

STARTCHAR c1a3
ENCODING 163
SWIDTH 631 0
DWIDTH 12 0
BBX 12 24 0 -6
BITMAP
0000
0000
0000
0000
0000
0000
0000
0000
0000
0000
0000
0000
F000
FC00
0C00
0600
0600
0600
0600
0600
0600
0600
0600
0600
ENDCHAR

STARTCHAR c1a4
ENCODING 164
SWIDTH 631 0
DWIDTH 12 0
BBX 12 24 0 -6
BITMAP
0600
0600
0600
0600
0600
0600
0600
0600
0600
0600
0600
0300
03F0
00F0
0000
0000
0000
0000
0000
0000
0000
0000
0000
0000
ENDCHAR

STARTCHAR c1a5
ENCODING 165
SWIDTH 631 0
DWIDTH 12 0
BBX 12 24 0 -6
BITMAP
0600
0600
0600
0600
0600
0600
0600
0600
0600
0600
0600
0C00
FC00
F000
0000
0000
0000
0000
0000
0000
0000
0000
0000
0000
ENDCHAR

STARTCHAR c1a6
ENCODING 166
SWIDTH 631 0
DWIDTH 12 0
BBX 12 24 0 -6
BITMAP
0600
0600
0600
0600
0600
0600
0600
0600
0600
0700
0380
01C0
00F0
00F0
01C0
0380
0700
0600
0600
0600
0600
0600
0600
0600
ENDCHAR

STARTCHAR c1a7
ENCODING 167
SWIDTH 631 0
DWIDTH 12 0
BBX 12 24 0 -6
BITMAP
0600
0600
0600
0600
0600
0600
0600
0600
0600
0E00
1C00
3800
F000
F000
3800
1C00
0E00
0600
0600
0600
0600
0600
0600
0600
ENDCHAR

STARTCHAR c1a8
ENCODING 168
SWIDTH 631 0
DWIDTH 12 0
BBX 12 24 0 -6
BITMAP
0000
0000
0000
0000
0000
0000
0000
0000
0000
0000
0000
0000
E070
F0F0
39C0
1F80
0F00
0600
0600
0600
0000
0000
0000
0000
ENDCHAR

STARTCHAR c1a9
ENCODING 169
SWIDTH 631 0
DWIDTH 12 0
BBX 12 24 0 -6
BITMAP
0000
0000
0000
0000
0000
0000
0600
0600
0600
0F00
1F80
39C0
F0F0
E070
0000
0000
0000
0000
0000
0000
0000
0000
0000
0000
ENDCHAR

STARTCHAR c1aa
ENCODING 170
SWIDTH 631 0
DWIDTH 12 0
BBX 12 24 0 -6
BITMAP
0600
0600
0600
0600
0600
0600
0600
0600
0600
0600
0600
0600
3FC0
3FC0
0600
0600
0600
0600
0600
0600
0600
0600
0600
0600
ENDCHAR

STARTCHAR c1ab
ENCODING 171
SWIDTH 631 0
DWIDTH 12 0
BBX 12 24 0 -6
BITMAP
0000
0000
0000
0000
0000
0000
0000
0000
0000
0600
0600
0600
FFF0
FFF0
0600
0600
0600
0000
0000
0000
0000
0000
0000
0000
ENDCHAR

STARTCHAR c1ac
ENCODING 172
SWIDTH 631 0
DWIDTH 12 0
BBX 12 24 0 -6
BITMAP
0000
0000
FFF0
FFF0
0000
0000
FFF0
FFF0
0000
0000
FFF0
FFF0
0000
0000
FFF0
FFF0
0000
0000
FFF0
FFF0
0000
0000
FFF0
FFF0
ENDCHAR

STARTCHAR c1ad
ENCODING 173
SWIDTH 631 0
DWIDTH 12 0
BBX 12 24 0 -6
BITMAP
0000
0000
7770
7770
0000
0000
7770
7770
0000
0000
7770
7770
0000
0000
7770
7770
0000
0000
7770
7770
0000
0000
7770
7770
ENDCHAR

STARTCHAR c1ae
ENCODING 174
SWIDTH 631 0
DWIDTH 12 0
BBX 12 24 0 -6
BITMAP
7770
7770
8880
8880
7770
7770
8880
8880
7770
7770
8880
8880
7770
7770
8880
8880
7770
7770
8880
8880
7770
7770
8880
8880
ENDCHAR

STARTCHAR c1af
ENCODING 175
SWIDTH 631 0
DWIDTH 12 0
BBX 12 24 0 -6
BITMAP
7770
7770
7770
7770
7770
7770
7770
7770
7770
7770
7770
7770
7770
7770
7770
7770
7770
7770
7770
7770
7770
7770
7770
7770
ENDCHAR

STARTCHAR c1b0
ENCODING 176
SWIDTH 631 0
DWIDTH 12 0
BBX 12 24 0 -6
BITMAP
0E00
0E00
0E00
0E00
0E00
0E00
0E00
0E00
0E00
0E00
0E00
0E00
0E00
0E00
0E00
0E00
0E00
0E00
0E00
0E00
0E00
0E00
0E00
0E00
ENDCHAR

STARTCHAR c1b1
ENCODING 177
SWIDTH 631 0
DWIDTH 12 0
BBX 12 24 0 -6
BITMAP
0000
0000
0000
0000
0000
0000
0000
0000
0000
0000
0000
FFF0
FFF0
FFF0
0000
0000
0000
0000
0000
0000
0000
0000
0000
0000
ENDCHAR

STARTCHAR c1b2
ENCODING 178
SWIDTH 631 0
DWIDTH 12 0
BBX 12 24 0 -6
BITMAP
0000
0000
0000
0000
0000
0000
0000
0000
0000
0000
0000
0FF0
0FF0
0FF0
0E00
0E00
0E00
0E00
0E00
0E00
0E00
0E00
0E00
0E00
ENDCHAR

STARTCHAR c1b3
ENCODING 179
SWIDTH 631 0
DWIDTH 12 0
BBX 12 24 0 -6
BITMAP
0000
0000
0000
0000
0000
0000
0000
0000
0000
0000
0000
FE00
FE00
FE00
0E00
0E00
0E00
0E00
0E00
0E00
0E00
0E00
0E00
0E00
ENDCHAR

STARTCHAR c1b4
ENCODING 180
SWIDTH 631 0
DWIDTH 12 0
BBX 12 24 0 -6
BITMAP
0E00
0E00
0E00
0E00
0E00
0E00
0E00
0E00
0E00
0E00
0E00
0FF0
0FF0
0FF0
0000
0000
0000
0000
0000
0000
0000
0000
0000
0000
ENDCHAR

STARTCHAR c1b5
ENCODING 181
SWIDTH 631 0
DWIDTH 12 0
BBX 12 24 0 -6
BITMAP
0E00
0E00
0E00
0E00
0E00
0E00
0E00
0E00
0E00
0E00
0E00
FE00
FE00
FE00
0000
0000
0000
0000
0000
0000
0000
0000
0000
0000
ENDCHAR

STARTCHAR c1b6
ENCODING 182
SWIDTH 631 0
DWIDTH 12 0
BBX 12 24 0 -6
BITMAP
0E00
0E00
0E00
0E00
0E00
0E00
0E00
0E00
0E00
0E00
0E00
0FF0
0FF0
0FF0
0E00
0E00
0E00
0E00
0E00
0E00
0E00
0E00
0E00
0E00
ENDCHAR

STARTCHAR c1b7
ENCODING 183
SWIDTH 631 0
DWIDTH 12 0
BBX 12 24 0 -6
BITMAP
0E00
0E00
0E00
0E00
0E00
0E00
0E00
0E00
0E00
0E00
0E00
FE00
FE00
FE00
0E00
0E00
0E00
0E00
0E00
0E00
0E00
0E00
0E00
0E00
ENDCHAR

STARTCHAR c1b8
ENCODING 184
SWIDTH 631 0
DWIDTH 12 0
BBX 12 24 0 -6
BITMAP
0000
0000
0000
0000
0000
0000
0000
0000
0000
0000
0000
FFF0
FFF0
FFF0
0E00
0E00
0E00
0E00
0E00
0E00
0E00
0E00
0E00
0E00
ENDCHAR

STARTCHAR c1b9
ENCODING 185
SWIDTH 631 0
DWIDTH 12 0
BBX 12 24 0 -6
BITMAP
0E00
0E00
0E00
0E00
0E00
0E00
0E00
0E00
0E00
0E00
0E00
FFF0
FFF0
FFF0
0000
0000
0000
0000
0000
0000
0000
0000
0000
0000
ENDCHAR

STARTCHAR c1ba
ENCODING 186
SWIDTH 631 0
DWIDTH 12 0
BBX 12 24 0 -6
BITMAP
0E00
0E00
0E00
0E00
0E00
0E00
0E00
0E00
0E00
0E00
0E00
FFF0
FFF0
FFF0
0E00
0E00
0E00
0E00
0E00
0E00
0E00
0E00
0E00
0E00
ENDCHAR

STARTCHAR c1bb
ENCODING 187
SWIDTH 631 0
DWIDTH 12 0
BBX 12 24 0 -6
BITMAP
0000
0000
0000
0000
0000
0000
0000
0100
0180
01C0
01E0
FFF0
FFF0
FFF0
01E0
01C0
0180
0100
0000
0000
0000
0000
0000
0000
ENDCHAR

STARTCHAR c1bc
ENCODING 188
SWIDTH 631 0
DWIDTH 12 0
BBX 12 24 0 -6
BITMAP
0000
0000
0000
0000
0000
0000
0000
0800
1800
3800
7800
FFF0
FFF0
FFF0
7800
3800
1800
0800
0000
0000
0000
0000
0000
0000
ENDCHAR

STARTCHAR c1bd
ENCODING 189
SWIDTH 631 0
DWIDTH 12 0
BBX 12 24 0 -6
BITMAP
0E00
1F00
3F80
7FC0
0E00
0E00
0E00
0E00
0E00
0E00
0E00
0E00
0E00
0E00
0E00
0E00
0E00
0E00
0E00
0E00
0E00
0E00
0E00
0E00
ENDCHAR

STARTCHAR c1be
ENCODING 190
SWIDTH 631 0
DWIDTH 12 0
BBX 12 24 0 -6
BITMAP
0E00
0E00
0E00
0E00
0E00
0E00
0E00
0E00
0E00
0E00
0E00
0E00
0E00
0E00
0E00
0E00
0E00
0E00
0E00
0E00
7FC0
3F80
1F00
0E00
ENDCHAR

STARTCHAR c1bf
ENCODING 191
SWIDTH 631 0
DWIDTH 12 0
BBX 12 24 0 -6
BITMAP
0E00
0E00
0E00
0E00
0E00
0E00
0E00
0E00
0E00
0E00
0E00
0000
0000
0000
0000
0000
0000
0000
0000
0000
0000
0000
0000
0000
ENDCHAR

STARTCHAR c1c0
ENCODING 192
SWIDTH 631 0
DWIDTH 12 0
BBX 12 24 0 -6
BITMAP
0000
0000
0000
0000
0000
0000
0000
0000
0000
0000
0000
0E00
0E00
0E00
0E00
0E00
0E00
0E00
0E00
0E00
0E00
0E00
0E00
0E00
ENDCHAR

STARTCHAR c1c1
ENCODING 193
SWIDTH 631 0
DWIDTH 12 0
BBX 12 24 0 -6
BITMAP
0000
0000
0000
0000
7F80
7F80
0000
0000
7F80
7F80
0000
0000
7F80
7F80
0000
0000
0000
0000
0000
0000
0000
0000
0000
0000
ENDCHAR

STARTCHAR c1c2
ENCODING 194
SWIDTH 631 0
DWIDTH 12 0
BBX 12 24 0 -6
BITMAP
0000
0000
0000
0000
0000
0000
0000
0000
0000
0000
0000
01F0
03F0
07F0
0F80
0F00
0E00
0E00
0E00
0E00
0E00
0E00
0E00
0E00
ENDCHAR

STARTCHAR c1c3
ENCODING 195
SWIDTH 631 0
DWIDTH 12 0
BBX 12 24 0 -6
BITMAP
0000
0000
0000
0000
0000
0000
0000
0000
0000
0000
0000
F000
F800
FC00
3E00
1E00
0E00
0E00
0E00
0E00
0E00
0E00
0E00
0E00
ENDCHAR

STARTCHAR c1c4
ENCODING 196
SWIDTH 631 0
DWIDTH 12 0
BBX 12 24 0 -6
BITMAP
0E00
0E00
0E00
0E00
0E00
0E00
0E00
0E00
0E00
0F00
0F80
07F0
03F0
01F0
0000
0000
0000
0000
0000
0000
0000
0000
0000
0000
ENDCHAR

STARTCHAR c1c5
ENCODING 197
SWIDTH 631 0
DWIDTH 12 0
BBX 12 24 0 -6
BITMAP
0E00
0E00
0E00
0E00
0E00
0E00
0E00
0E00
0E00
1E00
3E00
FC00
F800
F000
0000
0000
0000
0000
0000
0000
0000
0000
0000
0000
ENDCHAR

STARTCHAR c1c6
ENCODING 198
SWIDTH 631 0
DWIDTH 12 0
BBX 12 24 0 -6
BITMAP
0E00
0E00
0E00
0E00
0E00
0E00
0E00
0E00
0F00
0780
03C0
01F0
00F0
01F0
03C0
0780
0F00
0E00
0E00
0E00
0E00
0E00
0E00
0E00
ENDCHAR

STARTCHAR c1c7
ENCODING 199
SWIDTH 631 0
DWIDTH 12 0
BBX 12 24 0 -6
BITMAP
0E00
0E00
0E00
0E00
0E00
0E00
0E00
0E00
1E00
3C00
7800
F000
E000
F000
7800
3C00
1E00
0E00
0E00
0E00
0E00
0E00
0E00
0E00
ENDCHAR

STARTCHAR c1c8
ENCODING 200
SWIDTH 631 0
DWIDTH 12 0
BBX 12 24 0 -6
BITMAP
0000
0000
0000
0000
0000
0000
0000
0000
0000
0000
0000
E0F0
F1F0
FBF0
7FC0
3F80
1F00
0E00
0E00
0E00
0000
0000
0000
0000
ENDCHAR

STARTCHAR c1c9
ENCODING 201
SWIDTH 631 0
DWIDTH 12 0
BBX 12 24 0 -6
BITMAP
0000
0000
0000
0000
0000
0000
0E00
0E00
1F00
3F80
7FC0
FBF0
F1F0
E0F0
0000
0000
0000
0000
0000
0000
0000
0000
0000
0000
ENDCHAR

STARTCHAR c1ca
ENCODING 202
SWIDTH 631 0
DWIDTH 12 0
BBX 12 24 0 -6
BITMAP
0E00
0E00
0E00
0E00
0E00
0E00
0E00
0E00
0E00
0E00
0E00
7FC0
7FC0
7FC0
0E00
0E00
0E00
0E00
0E00
0E00
0E00
0E00
0E00
0E00
ENDCHAR

STARTCHAR c1cb
ENCODING 203
SWIDTH 631 0
DWIDTH 12 0
BBX 12 24 0 -6
BITMAP
0000
0000
0000
0000
0000
0000
0000
0000
0E00
0E00
0E00
FFF0
FFF0
FFF0
0E00
0E00
0E00
0000
0000
0000
0000
0000
0000
0000
ENDCHAR

STARTCHAR c1cc
ENCODING 204
SWIDTH 631 0
DWIDTH 12 0
BBX 12 24 0 -6
BITMAP
0000
0000
0000
0000
0000
7F00
7F80
60C0
6000
6000
6000
6000
6000
6000
6000
6000
6000
0000
0000
0000
0000
0000
0000
0000
ENDCHAR

STARTCHAR c1cd
ENCODING 205
SWIDTH 631 0
DWIDTH 12 0
BBX 12 24 0 -6
BITMAP
0000
0000
0000
0000
0000
0FE0
1FE0
3E00
7600
6300
6300
6300
6300
6300
7700
3E00
1C00
0000
0000
0000
0000
0000
0000
0000
ENDCHAR

STARTCHAR c1ce
ENCODING 206
SWIDTH 631 0
DWIDTH 12 0
BBX 12 24 0 -6
BITMAP
0000
0000
0000
0000
0000
1FC0
3FC0
7600
6600
0600
0600
0600
0600
0600
0600
0780
0380
0000
0000
0000
0000
0000
0000
0000
ENDCHAR

STARTCHAR c1cf
ENCODING 207
SWIDTH 631 0
DWIDTH 12 0
BBX 12 24 0 -6
BITMAP
0000
0000
3F00
7F80
61C0
30C0
1800
0C00
1F00
3F80
71C0
60C0
60C0
60C0
71C0
3F80
1F00
0000
0000
0000
0000
0000
0000
0000
ENDCHAR

STARTCHAR c1d0
ENCODING 208
SWIDTH 631 0
DWIDTH 12 0
BBX 12 24 0 -6
BITMAP
03F0
03F0
03F0
03F0
03F0
03F0
03F0
03F0
03F0
03F0
03F0
03F0
03F0
03F0
03F0
03F0
03F0
03F0
03F0
03F0
03F0
03F0
03F0
03F0
ENDCHAR

STARTCHAR c1d1
ENCODING 209
SWIDTH 631 0
DWIDTH 12 0
BBX 12 24 0 -6
BITMAP
FC00
FC00
FC00
FC00
FC00
FC00
FC00
FC00
FC00
FC00
FC00
FC00
FC00
FC00
FC00
FC00
FC00
FC00
FC00
FC00
FC00
FC00
FC00
FC00
ENDCHAR

STARTCHAR c1d2
ENCODING 210
SWIDTH 631 0
DWIDTH 12 0
BBX 12 24 0 -6
BITMAP
0000
0000
0000
0000
0000
0000
0000
0000
0000
0000
0000
0000
FFF0
FFF0
FFF0
FFF0
FFF0
FFF0
FFF0
FFF0
FFF0
FFF0
FFF0
FFF0
ENDCHAR

STARTCHAR c1d3
ENCODING 211
SWIDTH 631 0
DWIDTH 12 0
BBX 12 24 0 -6
BITMAP
FFF0
FFF0
FFF0
FFF0
FFF0
FFF0
FFF0
FFF0
FFF0
FFF0
FFF0
FFF0
0000
0000
0000
0000
0000
0000
0000
0000
0000
0000
0000
0000
ENDCHAR

STARTCHAR c1d4
ENCODING 212
SWIDTH 631 0
DWIDTH 12 0
BBX 12 24 0 -6
BITMAP
0FF0
0FF0
0FF0
0FF0
0FF0
0FF0
0FF0
0FF0
0FF0
0FF0
0FF0
0FF0
0FF0
0FF0
0FF0
0FF0
0FF0
0FF0
0FF0
0FF0
0FF0
0FF0
0FF0
0FF0
ENDCHAR

STARTCHAR c1d5
ENCODING 213
SWIDTH 631 0
DWIDTH 12 0
BBX 12 24 0 -6
BITMAP
FF00
FF00
FF00
FF00
FF00
FF00
FF00
FF00
FF00
FF00
FF00
FF00
FF00
FF00
FF00
FF00
FF00
FF00
FF00
FF00
FF00
FF00
FF00
FF00
ENDCHAR

STARTCHAR c1d6
ENCODING 214
SWIDTH 631 0
DWIDTH 12 0
BBX 12 24 0 -6
BITMAP
0000
0000
0000
0000
0000
0000
0000
0000
0000
0000
FFF0
FFF0
FFF0
FFF0
FFF0
FFF0
FFF0
FFF0
FFF0
FFF0
FFF0
FFF0
FFF0
FFF0
ENDCHAR

STARTCHAR c1d7
ENCODING 215
SWIDTH 631 0
DWIDTH 12 0
BBX 12 24 0 -6
BITMAP
FFF0
FFF0
FFF0
FFF0
FFF0
FFF0
FFF0
FFF0
FFF0
FFF0
FFF0
FFF0
FFF0
FFF0
0000
0000
0000
0000
0000
0000
0000
0000
0000
0000
ENDCHAR

STARTCHAR c1d8
ENCODING 216
SWIDTH 631 0
DWIDTH 12 0
BBX 12 24 0 -6
BITMAP
0000
0000
01F0
03F0
0700
0E00
1C00
3800
7000
6000
7000
3800
1C00
0E00
0700
03F0
01F0
0000
0000
0000
0000
0000
0000
0000
ENDCHAR

STARTCHAR c1d9
ENCODING 217
SWIDTH 631 0
DWIDTH 12 0
BBX 12 24 0 -6
BITMAP
0000
0000
FFC0
FFC0
00C0
00C0
86C0
CCC0
78C0
30C0
78C0
CCC0
86C0
00C0
00C0
FFC0
FFC0
0000
0000
0000
0000
0000
0000
0000
ENDCHAR

STARTCHAR c1da
ENCODING 218
SWIDTH 631 0
DWIDTH 12 0
BBX 12 24 0 -6
BITMAP
FFF0
FFF0
FFF0
E070
E070
E070
E070
E070
E070
E070
E070
E070
E070
E070
E070
E070
E070
E070
E070
E070
E070
FFF0
FFF0
FFF0
ENDCHAR

STARTCHAR c1db
ENCODING 219
SWIDTH 631 0
DWIDTH 12 0
BBX 12 24 0 -6
BITMAP
0000
0000
0FC0
1FC0
3800
7000
6000
6000
7F00
7F00
6000
6000
6000
7000
3800
1FC0
0FC0
0000
0000
0000
0000
0000
0000
0000
ENDCHAR

STARTCHAR c1dc
ENCODING 220
SWIDTH 631 0
DWIDTH 12 0
BBX 12 24 0 -6
BITMAP
0000
0000
1800
0C00
0600
0300
0180
00C0
0180
0300
0600
0C00
1800
0000
0000
1FC0
1FC0
0000
0000
0000
0000
0000
0000
0000
ENDCHAR

STARTCHAR c1dd
ENCODING 221
SWIDTH 631 0
DWIDTH 12 0
BBX 12 24 0 -6
BITMAP
0000
0000
00C0
0180
0300
0600
0C00
1800
0C00
0600
0300
0180
00C0
0000
0000
1FC0
1FC0
0000
0000
0000
0000
0000
0000
0000
ENDCHAR

STARTCHAR c1de
ENCODING 222
SWIDTH 631 0
DWIDTH 12 0
BBX 12 24 0 -6
BITMAP
0000
0000
1F00
3F80
71C0
60C0
60C0
60C0
7FC0
7FC0
7FC0
60C0
60C0
60C0
71C0
3F80
1F00
0000
0000
0000
0000
0000
0000
0000
ENDCHAR

STARTCHAR c1df
ENCODING 223
SWIDTH 631 0
DWIDTH 12 0
BBX 12 24 0 -6
BITMAP
0000
0000
03E0
03E0
0300
0300
0300
0300
0300
0300
7300
7B00
1B00
0F00
0F00
0700
0300
0000
0000
0000
0000
0000
0000
0000
ENDCHAR

STARTCHAR c1e0
ENCODING 224
SWIDTH 631 0
DWIDTH 12 0
BBX 12 24 0 -6
BITMAP
0000
0000
0C00
0C00
0000
0000
0C00
0C00
0C00
0C00
0C00
0C00
0C00
0C00
0C00
0C00
0C00
0000
0000
0000
0000
0000
0000
0000
ENDCHAR

STARTCHAR c1e1
ENCODING 225
SWIDTH 631 0
DWIDTH 12 0
BBX 12 24 0 -6
BITMAP
0000
0000
0000
0600
0600
0FC0
3FE0
3660
6600
6600
6600
6600
6600
6600
3660
3FE0
0FC0
0600
0600
0000
0000
0000
0000
0000
ENDCHAR

STARTCHAR c1e2
ENCODING 226
SWIDTH 631 0
DWIDTH 12 0
BBX 12 24 0 -6
BITMAP
0000
0000
6060
6060
30C0
30C0
1980
1980
0F00
0F00
0600
0600
3FC0
3FC0
0600
0600
0600
0000
0000
0000
0000
0000
0000
0000
ENDCHAR

STARTCHAR c1e3
ENCODING 227
SWIDTH 631 0
DWIDTH 12 0
BBX 12 24 0 -6
BITMAP
0000
0000
0000
0000
0000
0000
0000
0CC0
1980
3300
6600
6600
3300
1980
0CC0
0000
0000
0000
0000
0000
0000
0000
0000
0000
ENDCHAR

STARTCHAR c1e4
ENCODING 228
SWIDTH 631 0
DWIDTH 12 0
BBX 12 24 0 -6
BITMAP
0000
0000
0000
0000
0000
0000
0000
3300
1980
0CC0
0660
0660
0CC0
1980
3300
0000
0000
0000
0000
0000
0000
0000
0000
0000
ENDCHAR

STARTCHAR c1e5
ENCODING 229
SWIDTH 631 0
DWIDTH 12 0
BBX 12 24 0 -6
BITMAP
0000
0000
0000
0000
0000
0600
0600
0600
7FE0
7FE0
0600
0600
0600
0000
0000
7FE0
7FE0
0000
0000
0000
0000
0000
0000
0000
ENDCHAR

STARTCHAR c1e6
ENCODING 230
SWIDTH 631 0
DWIDTH 12 0
BBX 12 24 0 -6
BITMAP
0000
0000
0000
0000
0000
0000
0000
0000
60C0
3180
1100
0400
0400
1100
3180
60C0
0000
0000
0000
0000
0000
0000
0000
0000
ENDCHAR

STARTCHAR c1e7
ENCODING 231
SWIDTH 631 0
DWIDTH 12 0
BBX 12 24 0 -6
BITMAP
0000
0000
0000
0000
0000
0000
0600
0600
0000
0000
3FC0
3FC0
0000
0000
0600
0600
0000
0000
0000
0000
0000
0000
0000
0000
ENDCHAR

STARTCHAR c1e8
ENCODING 232
SWIDTH 631 0
DWIDTH 12 0
BBX 12 24 0 -6
BITMAP
0000
1800
3800
7800
5800
1800
1800
3C00
3CC0
0180
0300
0600
0C00
18C0
3180
0300
0600
06C0
07E0
07E0
00C0
00C0
0000
0000
ENDCHAR

STARTCHAR c1e9
ENCODING 233
SWIDTH 631 0
DWIDTH 12 0
BBX 12 24 0 -6
BITMAP
0000
1800
3800
7800
5800
1800
1800
3C00
3CC0
0180
0300
0600
0C00
1BC0
37E0
0460
00C0
0180
0300
0600
07E0
07E0
0000
0000
ENDCHAR

STARTCHAR c1ea
ENCODING 234
SWIDTH 631 0
DWIDTH 12 0
BBX 12 24 0 -6
BITMAP
0000
3C00
7E00
6600
0600
0C00
0600
6600
7EC0
3D80
0300
0600
0C00
18C0
3180
0300
0600
06C0
07E0
07E0
00C0
00C0
0000
0000
ENDCHAR

STARTCHAR c1eb
ENCODING 235
SWIDTH 631 0
DWIDTH 12 0
BBX 12 24 0 -6
BITMAP
0000
0000
0600
0600
0000
0000
0600
0600
0C00
1800
3000
6000
6040
60C0
33C0
3F80
0E00
0000
0000
0000
0000
0000
0000
0000
ENDCHAR

STARTCHAR c1ec
ENCODING 236
SWIDTH 631 0
DWIDTH 12 0
BBX 12 24 0 -6
BITMAP
0000
0000
0600
0600
0000
0000
0000
0000
0000
0000
0000
0000
0000
0000
0000
0000
0000
0000
0000
0000
0000
0000
0000
0000
ENDCHAR

STARTCHAR c1ed
ENCODING 237
SWIDTH 631 0
DWIDTH 12 0
BBX 12 24 0 -6
BITMAP
0000
0000
0000
0000
0000
0000
0000
0000
0000
0000
0000
0000
0000
0000
0000
0000
0C00
1800
30C0
3FC0
1F80
0000
0000
0000
ENDCHAR

STARTCHAR c1ee
ENCODING 238
SWIDTH 631 0
DWIDTH 12 0
BBX 12 24 0 -6
BITMAP
0000
0000
0000
0000
0000
0000
0000
3FE0
3FE0
3FE0
0000
0000
0000
0000
0000
0000
0000
0000
0000
0000
0000
0000
0000
0000
ENDCHAR

STARTCHAR c1ef
ENCODING 239
SWIDTH 631 0
DWIDTH 12 0
BBX 12 24 0 -6
BITMAP
0000
0000
0000
0000
0000
7B60
7B60
3360
33E0
33E0
3360
3360
3360
0000
0000
0000
0000
0000
0000
0000
0000
0000
0000
0000
ENDCHAR

STARTCHAR c1f0
ENCODING 240
SWIDTH 631 0
DWIDTH 12 0
BBX 12 24 0 -6
BITMAP
0000
1800
3800
7800
5800
1800
1800
3C00
3CC0
0180
0300
0600
0C00
1BC0
37E0
0660
0660
03C0
0660
0660
07E0
03C0
0000
0000
ENDCHAR

STARTCHAR c1f1
ENCODING 241
SWIDTH 631 0
DWIDTH 12 0
BBX 12 24 0 -6
BITMAP
0000
3C00
7E00
6600
0600
0C00
0600
6600
7EC0
3D80
0300
0600
0C00
1BC0
37E0
0660
0660
03C0
0660
0660
07E0
03C0
0000
0000
ENDCHAR

STARTCHAR c1f2
ENCODING 242
SWIDTH 631 0
DWIDTH 12 0
BBX 12 24 0 -6
BITMAP
0000
7E00
7E00
6000
6000
7C00
0600
0600
7EC0
3D80
0300
0600
0C00
1BC0
37E0
0660
0660
03C0
0660
0660
07E0
03C0
0000
0000
ENDCHAR

STARTCHAR c1f3
ENCODING 243
SWIDTH 631 0
DWIDTH 12 0
BBX 12 24 0 -6
BITMAP
0000
7E00
7E00
0600
0C00
1800
1800
3000
60C0
6180
0300
0600
0C00
1BC0
37E0
0660
0660
03C0
0660
0660
07E0
03C0
0000
0000
ENDCHAR

STARTCHAR c1f4
ENCODING 244
SWIDTH 631 0
DWIDTH 12 0
BBX 12 24 0 -6
BITMAP
0000
0000
0000
0000
0000
0F80
3FC0
70E0
0060
0060
1FE0
3FE0
7060
6060
61E0
7FE0
3E60
0000
0000
7FE0
7FE0
0000
0000
0000
ENDCHAR

STARTCHAR c1f5
ENCODING 245
SWIDTH 631 0
DWIDTH 12 0
BBX 12 24 0 -6
BITMAP
0000
0000
30C0
30C0
7FE0
7FE0
30C0
30C0
3FC0
3FC0
30C0
30C0
30C0
30C0
30C0
30C0
30C0
0000
0000
0000
0000
0000
0000
0000
ENDCHAR

STARTCHAR c1f6
ENCODING 246
SWIDTH 631 0
DWIDTH 12 0
BBX 12 24 0 -6
BITMAP
0000
0000
3000
7800
7800
3000
3000
3700
3F80
39C0
30C0
30C0
30C0
30C0
30C0
30C0
30C0
0000
0000
0000
0000
0000
0000
0000
ENDCHAR

STARTCHAR c1f7
ENCODING 247
SWIDTH 631 0
DWIDTH 12 0
BBX 12 24 0 -6
BITMAP
0000
0000
6000
6000
6000
6000
6700
6700
6000
6000
6000
6000
6000
6000
6000
7FC0
7FC0
0000
0000
0000
0000
0000
0000
0000
ENDCHAR

STARTCHAR c1f8
ENCODING 248
SWIDTH 631 0
DWIDTH 12 0
BBX 12 24 0 -6
BITMAP
0000
0000
0C00
0C00
0C00
0C00
0CE0
0CE0
0C00
0C00
0C00
0C00
0C00
0C00
0E00
07C0
03C0
0000
0000
0000
0000
0000
0000
0000
ENDCHAR

STARTCHAR c1f9
ENCODING 249
SWIDTH 631 0
DWIDTH 12 0
BBX 12 24 0 -6
BITMAP
0000
0000
0000
0000
0000
0F00
3FC0
30C0
6060
6060
6060
6060
6060
6060
30C0
3FC0
0F00
0000
0000
7FE0
7FE0
0000
0000
0000
ENDCHAR

STARTCHAR c1fa
ENCODING 250
SWIDTH 631 0
DWIDTH 12 0
BBX 12 24 0 -6
BITMAP
0000
0000
7FE0
7FE0
0600
1F80
1F80
0600
0600
0600
0600
0600
0600
0600
0600
0600
0600
0000
0000
0000
0000
0000
0000
0000
ENDCHAR

STARTCHAR c1fb
ENCODING 251
SWIDTH 631 0
DWIDTH 12 0
BBX 12 24 0 -6
BITMAP
0000
0000
0600
0600
0600
7FE0
7FE0
0600
0600
1F80
1F80
0600
0600
0600
0700
03E0
01E0
0000
0000
0000
0000
0000
0000
0000
ENDCHAR

STARTCHAR c1fc
ENCODING 252
SWIDTH 631 0
DWIDTH 12 0
BBX 12 24 0 -6
BITMAP
0000
0000
6780
6FC0
78E0
7060
6060
6060
6060
6060
6060
6060
6060
6060
6060
6060
6060
00C0
07C0
0700
0000
0000
0000
0000
ENDCHAR

STARTCHAR c1fd
ENCODING 253
SWIDTH 631 0
DWIDTH 12 0
BBX 12 24 0 -6
BITMAP
0000
0000
0000
0000
0000
6780
6FC0
7860
7060
6060
6060
6060
6060
6060
6060
6060
6060
00C0
07C0
0700
0000
0000
0000
0000
ENDCHAR

STARTCHAR c1fe
ENCODING 254
SWIDTH 631 0
DWIDTH 12 0
BBX 12 24 0 -6
BITMAP
1800
1800
1800
0000
0000
6780
6FC0
7860
7060
6060
6060
6060
6060
6060
6060
6060
6060
0000
0000
0000
0000
0000
0000
0000
ENDCHAR

STARTCHAR c1ff
ENCODING 255
SWIDTH 631 0
DWIDTH 12 0
BBX 12 24 0 -6
BITMAP
0000
0000
0CC0
0CC0
0CC0
0CC0
0CC0
0CC0
0CC0
0CC0
0CC0
0CC0
0CC0
0CC0
0CC0
0CC0
0CC0
0000
0000
0000
0000
0000
0000
0000
ENDCHAR
ENDFONT
